<svg xmlns="http://www.w3.org/2000/svg" xmlns:xlink="http://www.w3.org/1999/xlink" width="24" height="24" viewBox="0 0 24 24">
    <defs>
        <path id="prefix__a" d="M15.17 3c.795 0 1.558.317 2.12.88l2.83 2.83c.563.562.88 1.325.88 2.12V18c0 1.657-1.343 3-3 3H6c-1.657 0-3-1.343-3-3V8.83c0-.795.317-1.558.88-2.12l2.83-2.83C7.272 3.317 8.035 3 8.83 3zM19 9H5v9c0 .552.448 1 1 1h12c.552 0 1-.448 1-1V9zm-4 2c.552 0 1 .448 1 1 0 2.21-1.79 4-4 4s-4-1.79-4-4c0-.552.448-1 1-1s1 .448 1 1c0 1.105.895 2 2 2s2-.895 2-2c0-.552.448-1 1-1zm.17-6H8.83c-.265.004-.518.107-.71.29L6.41 7h11.18l-1.71-1.71c-.192-.183-.445-.286-.71-.29z"/>
    </defs>
    <g fill="none" fill-rule="evenodd">
        <mask id="prefix__b" fill="#fff">
            <use xlink:href="#prefix__a"/>
        </mask>
        <use fill="#A2CD3A" fill-rule="nonzero" xlink:href="#prefix__a"/>
        <g fill="#FFF" mask="url(#prefix__b)">
            <path d="M0 0H96V96H0z" transform="translate(-36 -36)"/>
        </g>
    </g>
</svg>
