<svg xmlns="http://www.w3.org/2000/svg" width="134" height="96" viewBox="0 0 134 96">
    <g fill="none" fill-rule="evenodd">
        <path fill="#A2CD3A" d="M91 22.832C91.09 35.534 81.09 45.906 68.663 46 56.238 46.092 46.092 35.871 46 23.17 45.91 10.467 55.909.094 68.335 0 80.76-.092 90.908 10.13 91 22.832"/>
        <path fill="#FFF" fill-rule="nonzero" d="M58.723 28.053c2.407 0 3.975-.982 4.278-2.83h-2.085c-.16.85-.838 1.332-2.14 1.332-1.621 0-2.495-.915-2.566-2.58h6.827v-.582c0-3.112-2.086-4.393-4.403-4.393C55.978 19 54 20.797 54 23.493v.133c0 2.73 1.96 4.427 4.723 4.427zm2.175-5.425h-4.652c.214-1.348 1.087-2.164 2.388-2.164 1.355 0 2.14.65 2.264 2.164zM65.746 30l.071-2.113h6.292L72.181 30h1.836v-3.611h-1.355v-7.206h-6.845c0 1.148-.089 3.395-.285 4.876-.16 1.265-.374 2.113-1.034 2.33h-.588V30h1.836zm4.777-3.611h-3.618c.285-.533.428-1.215.552-2.197.125-1.065.179-2.463.232-3.528h2.834v5.725zm7.504 1.664c1.426 0 2.228-.483 2.852-1.232v1.066H83v-5.708C83 19.782 81.36 19 79.275 19c-2.086 0-3.797.849-3.993 2.879h2.086c.124-.865.641-1.365 1.782-1.365 1.283 0 1.693.566 1.693 1.748v.449h-1.158c-2.656 0-4.777.732-4.777 2.763 0 1.813 1.408 2.579 3.119 2.579zm.517-1.448c-1.07 0-1.497-.482-1.497-1.215 0-1.065 1.051-1.414 2.691-1.414h1.105v.865c0 1.132-.962 1.764-2.3 1.764z"/>
        <path fill="#262626" d="M10.594 60.421c-.013-.652-.134-1.305-.364-1.965-.359-.084-.855-.118-1.483-.105-.684.014-1.323.29-1.915.822-.591.533-1.073 1.207-1.442 2.02-.37.815-.657 1.694-.862 2.635-.204.944-.298 1.844-.281 2.7.018.95.198 1.716.54 2.297.343.58.84.865 1.492.851.683-.014 1.314-.344 1.893-.984.58-.642 1.042-1.442 1.388-2.397.345-.958.607-1.952.788-2.986.181-1.033.263-1.995.246-2.888zM7.337 48.635c.75-.016 1.726.01 2.933.075 1.206.066 2.23.09 3.071.072.841-.018 1.57-.125 2.185-.322.28.43.372 1.004.277 1.728-.138.7-.44 1.313-.9 1.837-.463.525-1.058.795-1.785.812-.803.016-1.93-.112-3.378-.384-1.45-.272-2.522-.422-3.217-.454.684.512 1.24.943 1.67 1.293.43.352.952.838 1.566 1.46.616.621 1.102 1.218 1.46 1.788.358.57.676 1.248.952 2.038.275.789.422 1.607.438 2.452.02 1.03-.07 2.11-.272 3.24-.2 1.131-.518 2.241-.952 3.331-.435 1.091-.954 2.078-1.555 2.96-.602.883-1.327 1.598-2.174 2.148-.848.55-1.749.835-2.704.856-.835.018-1.574-.127-2.214-.434-.641-.305-1.155-.735-1.54-1.288-.386-.55-.676-1.178-.875-1.876C.125 69.27.018 68.5.002 67.665c-.024-1.222.158-2.49.545-3.802.387-1.313.92-2.52 1.6-3.62.678-1.101 1.532-2.011 2.56-2.733 1.03-.718 2.119-1.091 3.269-1.116.412-.008.781.018 1.109.079-.334-.404-.738-.81-1.213-1.216-.474-.408-.891-.731-1.248-.97-.358-.238-.802-.528-1.336-.872-.533-.343-.893-.575-1.08-.697-.009-.447-.005-.815.01-1.107.017-.292.08-.642.192-1.05.112-.408.271-.736.478-.98.207-.244.518-.46.933-.647.414-.185.92-.285 1.516-.299z"/>
        <path fill="#262626" d="M21.944 57.544c-.652.013-1.243.221-1.775.627-.53.406-.957.902-1.276 1.49-.319.589-.588 1.248-.81 1.979-.22.73-.374 1.404-.463 2.018-.087.617-.137 1.18-.149 1.693 1.72-1.079 3.072-2.184 4.055-3.314.982-1.128 1.463-2.207 1.44-3.231-.007-.374-.106-.679-.297-.915-.19-.238-.433-.352-.725-.347zm3.707.52c.015.737-.088 1.415-.311 2.033-.223.618-.625 1.278-1.206 1.977-.581.7-1.408 1.433-2.475 2.196-1.07.763-2.416 1.592-4.04 2.489.339 1.607 1.424 2.391 3.258 2.356 1.214-.024 2.513-.401 3.898-1.133 1.385-.73 2.444-1.579 3.177-2.545.425-.081.731.005.916.264.186.258.176.538-.031.842-1.124 1.644-2.578 2.956-4.363 3.936-1.784.979-3.537 1.486-5.257 1.52-1.192.023-2.256-.194-3.195-.652-.937-.457-1.647-1.155-2.129-2.098-.177.09-.31.145-.401.168-.682.174-2.344.18-2.853-.205-.509-.386-.714-.895-.615-1.527.665.073 2.471-.176 3.285-.523-.067-.479-.102-.783-.104-.911-.016-.725.052-1.495.203-2.31.152-.815.376-1.639.672-2.472.298-.834.692-1.633 1.182-2.402.489-.768 1.037-1.451 1.643-2.05.605-.6 1.32-1.08 2.145-1.444.825-.363 1.693-.553 2.604-.571.752-.014 1.398.064 1.937.235.538.171.948.415 1.23.73.282.314.489.641.62.981.13.339.201.711.21 1.116z"/>
        <path fill="#262626" d="M41.873 44.496c-.123-1.52-.61-2.636-1.463-3.348-.852-.71-1.836-1.026-2.951-.947-1.215.088-2.13.505-2.748 1.25-.618.745-.884 1.643-.8 2.693.07.862.399 1.721.987 2.578-.708.54-1.438.835-2.187.89-.932.066-1.75-.182-2.457-.747-.708-.565-1.101-1.355-1.183-2.374-.081-1.002.062-1.919.43-2.75.368-.83.872-1.517 1.514-2.06.643-.542 1.4-1.01 2.273-1.403.871-.394 1.727-.684 2.565-.87.838-.186 1.681-.31 2.53-.371 1.198-.086 2.333-.022 3.404.193 1.073.215 2.052.584 2.94 1.103.886.519 1.615 1.251 2.185 2.194.57.945.906 2.053 1.008 3.322.067.83-.043 1.738-.333 2.72-.288.983-.739 1.988-1.349 3.016-.612 1.03-1.473 2.025-2.583 2.988-1.11.962-2.384 1.772-3.82 2.426 2.74-.244 4.9.138 6.48 1.144 1.58 1.006 2.463 2.668 2.65 4.987.148 1.833-.178 3.6-.978 5.296-.799 1.697-1.889 3.138-3.264 4.326-1.378 1.186-2.927 2.153-4.65 2.9-1.721.744-3.439 1.179-5.153 1.302-2.695.193-4.975-.222-6.84-1.247-1.866-1.025-2.886-2.628-3.062-4.805-.095-1.176.177-2.211.815-3.11.64-.897 1.666-1.395 3.08-1.496.383-.028.798.04 1.247.204.447.167.777.398.985.698-.396.691-.557 1.499-.482 2.425.116 1.441.61 2.517 1.477 3.228.87.708 1.912 1.021 3.126.933.882-.062 1.764-.336 2.646-.817.881-.48 1.684-1.124 2.405-1.935.72-.806 1.278-1.84 1.668-3.098.392-1.257.531-2.606.414-4.049-.087-1.08-.317-1.956-.689-2.622-.371-.667-.93-1.164-1.676-1.487-.746-.327-1.59-.525-2.533-.6-.944-.073-2.147-.058-3.612.046-.359-.715-.298-1.515.183-2.402 1.294-.139 2.431-.462 3.41-.965.981-.504 1.76-1.103 2.341-1.8.58-.694 1.039-1.49 1.377-2.379.337-.891.552-1.759.644-2.602.089-.84.1-1.7.03-2.578"/>
        <path fill="#262626" d="M60.888 54.676c-.042-1.536-.462-2.682-1.264-3.438-.802-.757-1.755-1.121-2.856-1.094-1.201.029-2.125.405-2.772 1.125-.648.721-.958 1.611-.93 2.673.023.87.301 1.752.836 2.64-.727.51-1.46.773-2.2.792-.923.023-1.716-.268-2.382-.868-.667-.603-1.013-1.418-1.04-2.448-.027-1.011.163-1.926.568-2.744.407-.818.94-1.486 1.602-2.003.66-.513 1.43-.948 2.31-1.304.88-.353 1.737-.604 2.573-.752.836-.146 1.673-.23 2.512-.25 1.185-.03 2.299.089 3.342.356 1.044.267 1.99.685 2.837 1.249.845.566 1.524 1.337 2.036 2.315.511.977.784 2.109.818 3.389.022.84-.134 1.748-.47 2.722-.337.974-.834 1.965-1.49 2.97-.656 1.008-1.557 1.969-2.7 2.884-1.145.916-2.441 1.668-3.892 2.26 2.714-.115 4.822.372 6.323 1.46 1.503 1.087 2.286 2.802 2.347 5.146.049 1.85-.365 3.614-1.242 5.283-.878 1.669-2.027 3.067-3.443 4.196-1.42 1.127-2.997 2.026-4.732 2.694-1.735.668-3.45 1.024-5.144 1.066-2.665.065-4.888-.462-6.67-1.583-1.783-1.12-2.704-2.78-2.763-4.982-.032-1.186.29-2.216.968-3.09.675-.872 1.713-1.324 3.11-1.36.379-.009.784.08 1.218.27.433.185.744.435.933.747-.427.676-.627 1.481-.602 2.416.038 1.457.466 2.563 1.284 3.319.82.756 1.83 1.12 3.03 1.09.872-.023 1.754-.254 2.648-.695.893-.443 1.718-1.053 2.47-1.833.753-.778 1.357-1.791 1.809-3.039.45-1.245.658-2.596.62-4.054-.03-1.093-.21-1.984-.541-2.672-.33-.69-.855-1.214-1.572-1.576-.718-.365-1.539-.606-2.464-.726s-2.112-.16-3.558-.126c-.316-.737-.214-1.54.306-2.408 1.281-.079 2.419-.349 3.41-.81.991-.459 1.79-1.024 2.4-1.697.608-.672 1.1-1.45 1.48-2.33.38-.881.637-1.742.77-2.586.136-.843.19-1.706.167-2.594"/>
        <path fill="#262626" d="M74.609 66.533l1.925-8.804c-.56-.182-1.103-.272-1.63-.272-.985 0-1.859.285-2.62.853-.76.57-1.351 1.308-1.77 2.218-.42.911-.733 1.85-.939 2.821-.206.969-.31 1.935-.308 2.9 0 .78.171 1.37.513 1.765.343.397.793.595 1.353.595.56-.001 1.164-.193 1.815-.579.649-.387 1.202-.886 1.66-1.497zM73.677 55c1.511-.001 2.693.357 3.545 1.073.559-.63 1.337-.947 2.334-.948.616-.001 1.154.138 1.612.417l-2.394 10.892c-.367 1.628-.025 2.442 1.028 2.442.604-.001 1.24-.164 1.906-.492.665-.327 1.234-.715 1.704-1.166.392.16.587.428.588.803.001.258-.1.499-.301.723-.84.912-1.816 1.681-2.93 2.308-1.114.627-2.125.94-3.032.94-.93.001-1.697-.249-2.3-.751-.607-.503-.904-1.355-.893-2.555-.762 1.018-1.59 1.825-2.485 2.42-.896.595-1.814.893-2.754.894-.683 0-1.288-.126-1.814-.376-.527-.251-.944-.57-1.253-.956-.309-.384-.558-.834-.749-1.349-.19-.514-.32-.999-.387-1.453-.067-.456-.101-.918-.102-1.39-.001-1.906.383-3.74 1.155-5.503.77-1.761 1.832-3.198 3.18-4.307 1.35-1.11 2.796-1.664 4.342-1.666z"/>
        <path fill="#262626" d="M92.612 59.96c0-.603-.107-1.21-.324-1.824-.353-.084-.843-.126-1.466-.125-.676.001-1.312.242-1.908.723-.597.482-1.083 1.095-1.464 1.841-.38.745-.681 1.552-.9 2.418-.221.868-.33 1.697-.33 2.49.002.877.165 1.589.494 2.134.328.543.814.815 1.46.815.675-.001 1.306-.292 1.89-.873.584-.583 1.058-1.313 1.417-2.19.359-.878.638-1.793.836-2.745.198-.951.295-1.84.295-2.664zm-3.005-10.955c.742 0 1.708.042 2.901.126 1.192.083 2.206.124 3.037.124.833 0 1.555-.085 2.167-.255.27.402.349.935.243 1.6-.15.646-.458 1.206-.926 1.682-.466.477-1.06.715-1.78.716-.795 0-1.906-.14-3.334-.42-1.43-.278-2.488-.437-3.175-.48.666.487 1.208.896 1.629 1.229.418.332.927.791 1.523 1.377.597.587 1.066 1.147 1.41 1.68.345.534.647 1.168.906 1.902.256.735.386 1.493.386 2.275.001.952-.108 1.949-.326 2.99-.221 1.04-.556 2.061-1.005 3.06-.451 1.001-.981 1.902-1.594 2.705-.612.805-1.342 1.452-2.19 1.945-.848.491-1.744.738-2.689.739-.828 0-1.556-.148-2.184-.443-.628-.294-1.13-.703-1.5-1.219-.371-.517-.647-1.102-.83-1.752-.184-.649-.276-1.36-.276-2.132 0-1.132.203-2.3.609-3.505.408-1.206.957-2.31 1.65-3.315.691-1.005 1.554-1.83 2.584-2.476 1.03-.645 2.114-.97 3.254-.97.409 0 .773.032 1.096.094-.323-.38-.715-.761-1.177-1.148-.463-.385-.87-.692-1.217-.918-.351-.228-.786-.505-1.306-.833-.522-.326-.873-.548-1.056-.665 0-.413.01-.753.032-1.023.02-.27.09-.591.208-.967.117-.375.281-.673.491-.897.209-.221.52-.415.933-.579.414-.165.915-.246 1.506-.247zM112.596 56.697c.283.278.418.597.403.955-.015.36-.15.646-.401.86-.055.043-.507.488-1.36 1.335-.85.847-1.541 1.442-2.067 1.785.02.085.032.208.032.37.001 1.22-.259 2.446-.78 3.68-.52 1.23-1.18 2.304-1.98 3.213-.8.91-1.708 1.657-2.723 2.234-1.016.58-2.003.87-2.961.871-.812 0-1.527-.154-2.15-.465-.62-.31-1.116-.738-1.484-1.284-.37-.546-.648-1.16-.84-1.847-.188-.684-.285-1.423-.285-2.215-.001-.997.127-2.02.385-3.07.255-1.05.635-2.054 1.134-3.013.5-.959 1.078-1.822 1.736-2.588.658-.765 1.423-1.377 2.297-1.834.873-.455 1.786-.683 2.733-.684.863 0 1.609.144 2.235.433.626.288 1.173.786 1.635 1.493-.03.363-.156.633-.377.811-.221.176-.458.217-.712.12-.673-.245-1.363-.367-2.069-.367s-1.369.248-1.99.74c-.62.494-1.134 1.118-1.539 1.873-.403.757-.725 1.576-.96 2.467-.238.889-.357 1.741-.356 2.554.001 1.36.198 2.37.588 3.028.39.659.895.987 1.516.986.864 0 1.7-.546 2.503-1.638.805-1.095 1.207-2.347 1.207-3.762-.002-.385-.055-.834-.16-1.35-.63-.03-1.127-.159-1.485-.382-.36-.911-.362-1.715-.01-2.41.353-.697.982-1.046 1.888-1.046 1.138-.001 1.986.502 2.545 1.507.492-.311 1.191-.892 2.09-1.745.902-.852 1.488-1.39 1.762-1.615"/>
        <g fill="#262626">
            <path d="M109.75 5.238l-1.386 6.73c-.162.868-.17 1.502-.023 1.904.146.4.397.6.752.6.334.002.668-.134 1.002-.403.334-.266.619-.683.855-1.25.313-.001.555.081.728.249.173.166.258.395.258.685.001.746-.251 1.436-.758 2.071-.506.634-1.104 1.113-1.792 1.436-.69.324-1.358.485-2.005.486-.302 0-.59-.027-.865-.082-.274-.056-.565-.15-.873-.284-.307-.133-.568-.317-.783-.55-.215-.234-.409-.529-.575-.884-.168-.357-.251-.786-.251-1.287 0-.5.051-1.085.16-1.752l1.385-6.815c.171-.555.21-1.031.113-1.427-.098-.394-.4-.592-.907-.592-.98 0-1.94.525-2.875 1.572l-2.046 9.95c-.15.737-.484 1.28-1.001 1.631-.518.352-1.11.528-1.778.527-.592.002-1.11-.143-1.553-.433L97.837 6.1c.16-.556.193-1.033.095-1.427-.097-.396-.394-.593-.888-.593-1.079.001-2.097.597-3.054 1.79l-1.998 9.734c-.15.736-.487 1.28-1.01 1.63-.521.35-1.117.527-1.784.527-.593 0-1.111-.143-1.553-.434l2.707-13.141c.065-.267.064-.476-.001-.627-.065-.15-.173-.225-.324-.224-.14 0-.362.138-.662.416-.248-.143-.386-.423-.413-.834-.026-.411.11-.762.411-1.052C90.71.772 91.943.226 93.065.225c.623 0 1.08.153 1.366.457.285.307.358.777.217 1.412l-.322 1.552c1.529-2.282 3.16-3.424 4.896-3.425.766-.001 1.43.305 1.998.915.566.613.827 1.481.785 2.605 1.593-2.349 3.246-3.525 4.96-3.526.323 0 .636.046.937.14.302.094.612.253.931.476.317.222.563.525.735.91.172.382.295.861.366 1.434.07.575.008 1.261-.185 2.063M30.436 40.19c-12.294.094-23.614-6.233-30.28-16.923-.293-.47-.162-1.096.293-1.4.455-.3 1.062-.167 1.355.304 6.3 10.103 16.999 16.084 28.617 15.996 11.767-.09 22.45-6.35 28.578-16.745.28-.478.884-.629 1.346-.338.463.29.609.913.328 1.391-6.484 10.999-17.787 17.622-30.237 17.716" transform="translate(22 55)"/>
        </g>
        <path fill="#262626" d="M85.385 49c-.244.003-.476-.247-.576-.664-.223-.93-.472-1.856-.739-2.754-.158-.53-.04-1.184.264-1.46s.678-.069.836.462c.282.95.545 1.93.782 2.914.132.552-.016 1.186-.332 1.418-.076.056-.156.083-.235.084M22.023 47c-.147.001-.296-.028-.438-.09-.508-.22-.727-.782-.489-1.253 4.076-8.063 11.559-14.476 20.53-17.597.526-.182 1.112.064 1.31.552.196.487-.07 1.031-.596 1.214-8.48 2.949-15.551 9.011-19.403 16.631-.171.34-.534.54-.914.543"/>
    </g>
</svg>
